<svg xmlns="http://www.w3.org/2000/svg" viewBox="0 0 800 600" role="img" aria-label="Mars surface illustration">
  <defs>
    <linearGradient id="marsbg" x1="0" x2="1" y1="0" y2="1">
      <stop offset="0%" stop-color="#3b2746"/>
      <stop offset="100%" stop-color="#8a3f42"/>
    </linearGradient>
  </defs>
  <rect width="800" height="600" fill="url(#marsbg)"/>
  <circle cx="146" cy="112" r="4" fill="#fff"/>
  <circle cx="224" cy="74" r="3" fill="#fff"/>
  <circle cx="660" cy="96" r="4" fill="#fff"/>
  <path d="M0 408c84-44 192-50 286-18 84 28 150 28 234-8 84-36 180-34 280 8V600H0Z" fill="#c0674f"/>
  <path d="M0 464c104-38 224-36 316 10 68 34 118 38 188 12 92-34 190-32 296 8V600H0Z" fill="#e28d63"/>
  <g transform="translate(512 308)">
    <rect x="28" y="118" width="112" height="18" rx="9" fill="#d2ecf7"/>
    <rect x="60" y="44" width="50" height="70" rx="12" fill="#ecf5fa"/>
    <circle cx="86" cy="70" r="14" fill="#97d0e2"/>
    <path d="M86 38V8" stroke="#c5eff9" stroke-width="8" stroke-linecap="round"/>
    <path d="M46 134 28 168M120 134l18 34" stroke="#d2ecf7" stroke-width="10" stroke-linecap="round"/>
  </g>
</svg>
