<svg xmlns="http://www.w3.org/2000/svg" viewBox="0 0 800 600" role="img" aria-label="Robot lab illustration">
  <defs>
    <linearGradient id="labbg" x1="0" x2="1" y1="0" y2="1">
      <stop offset="0%" stop-color="#f2fafc"/>
      <stop offset="100%" stop-color="#d5e9ef"/>
    </linearGradient>
  </defs>
  <rect width="800" height="600" fill="url(#labbg)"/>
  <rect x="0" y="430" width="800" height="170" fill="#c9d9df"/>
  <rect x="98" y="376" width="604" height="32" rx="16" fill="#8ea4ad"/>
  <rect x="136" y="164" width="116" height="230" rx="22" fill="#3c6578"/>
  <circle cx="194" cy="214" r="22" fill="#8ce1f3"/>
  <path d="M252 212h96c28 0 50 22 50 50v28h78c24 0 44 20 44 44v32h80" fill="none" stroke="#2f4f61" stroke-width="28" stroke-linecap="round" stroke-linejoin="round"/>
  <circle cx="396" cy="290" r="28" fill="#5f8999"/>
  <circle cx="520" cy="366" r="28" fill="#5f8999"/>
  <path d="M600 366l54-54" stroke="#2f4f61" stroke-width="28" stroke-linecap="round"/>
  <circle cx="668" cy="300" r="34" fill="#ffd87a"/>
  <path d="M658 274h20M650 292h36M654 310h28" stroke="#945d0d" stroke-width="10" stroke-linecap="round"/>
  <circle cx="578" cy="118" r="58" fill="#fff" opacity="0.65"/>
  <path d="M536 118h84M578 76v84" stroke="#7ab3c0" stroke-width="12" stroke-linecap="round"/>
</svg>
