<svg xmlns="http://www.w3.org/2000/svg" viewBox="0 0 800 600" role="img" aria-label="Space exploration illustration">
  <defs>
    <linearGradient id="bg" x1="0" x2="1" y1="0" y2="1">
      <stop offset="0%" stop-color="#0f2042"/>
      <stop offset="100%" stop-color="#2a5f8f"/>
    </linearGradient>
    <linearGradient id="planet" x1="0" x2="1">
      <stop offset="0%" stop-color="#f8b36b"/>
      <stop offset="100%" stop-color="#f06f59"/>
    </linearGradient>
  </defs>
  <rect width="800" height="600" fill="url(#bg)"/>
  <circle cx="610" cy="150" r="88" fill="url(#planet)"/>
  <circle cx="610" cy="150" r="124" fill="none" stroke="#f6d3a9" stroke-width="10" opacity="0.5"/>
  <circle cx="140" cy="110" r="3" fill="#fff"/>
  <circle cx="250" cy="80" r="4" fill="#fff"/>
  <circle cx="320" cy="170" r="3" fill="#fff"/>
  <circle cx="720" cy="280" r="4" fill="#fff"/>
  <circle cx="90" cy="260" r="2" fill="#fff"/>
  <path d="M155 430c46-62 88-96 126-102 27-5 52 8 71 30l66 73c8 9 20 13 32 10l73-16c27-6 55 3 74 23l68 72H110Z" fill="#8a4d3e"/>
  <path d="M155 430c46-62 88-96 126-102 27-5 52 8 71 30l66 73c8 9 20 13 32 10l73-16c27-6 55 3 74 23l68 72H110Z" fill="none" stroke="#d9927b" stroke-width="10" opacity="0.35"/>
  <g transform="translate(235 300)">
    <rect x="0" y="72" width="112" height="18" rx="9" fill="#d2ecf7"/>
    <rect x="28" y="10" width="56" height="60" rx="12" fill="#ecf5fa"/>
    <circle cx="56" cy="36" r="16" fill="#97d0e2"/>
    <path d="M56 0v-24" stroke="#c5eff9" stroke-width="10" stroke-linecap="round"/>
    <circle cx="56" cy="-34" r="12" fill="#ffd36e"/>
    <path d="M18 86l-20 38M94 86l20 38" stroke="#d2ecf7" stroke-width="10" stroke-linecap="round"/>
  </g>
</svg>
